<svg xmlns="http://www.w3.org/2000/svg" viewBox="0 0 24 24">
  <path fill="#EA4335" d="M12 10.2v3.9h5.4c-.2 1.2-.8 2.2-1.8 3l2.9 2.2c1.7-1.5 2.6-3.9 2.6-6.6 0-.6-.1-1.2-.2-1.7H12Z"/>
  <path fill="#34A853" d="M12 21c2.4 0 4.4-.8 5.9-2.1L15 16.7c-.8.5-1.8.8-3 .8-2.3 0-4.3-1.6-5-3.8L4 16c1.6 3 4.7 5 8 5Z"/>
  <path fill="#4A90E2" d="M7 13.7c-.2-.5-.3-1.1-.3-1.7s.1-1.2.3-1.7L4 8c-.6 1.2-1 2.5-1 4s.4 2.8 1 4l3-2.3Z"/>
  <path fill="#FBBC05" d="M12 6.5c1.3 0 2.5.4 3.4 1.3l2.6-2.6C16.4 3.7 14.4 3 12 3 8.7 3 5.6 5 4 8l3 2.3c.7-2.2 2.7-3.8 5-3.8Z"/>
</svg>
